<?xml version="1.0" encoding="UTF-8"?>
<svg width="752pt" height="752pt" version="1.1" viewBox="0 0 752 752" xmlns="http://www.w3.org/2000/svg">
 <g fill="#0475e5">
  <path d="m321.46 282.7h-61.723l-30.309 100c49.094 55.328 113.89 104.34 139.55 122.82 3.7891 2.7617 8.918 2.3672 12.234-0.94531 1.8164-1.8164 2.7617-4.1836 2.7617-6.7109 0-2.6055-0.94531-4.9727-2.7617-6.7891l-16.574-16.574-18.945-18.941c-3.0781-3.0781-3.0781-8.0508 0-11.129 3.0781-3.0781 8.0508-3.0781 11.129 0l44.121 44.121c4.8164 4.7344 12.629 4.7344 17.363 0 4.7344-4.7344 4.8164-12.473 0.15625-17.285l-38.992-40.332c-3-3.1562-2.9219-8.1289 0.23828-11.207 3.0781-3 8.1289-2.9219 11.129 0.23828l6.2344 6.3945 32.758 33.941 8.7617 9c4.8164 4.9727 12.629 5.2891 17.84 0.63281 2.6836-2.3672 4.2617-5.6836 4.3398-9.3125 0-3.6328-1.3398-7.0234-3.9453-9.5508l-29.203-28.336-19.258-18.629c-3.1562-3-3.2344-7.9727-0.15625-11.129 3-3.1562 7.9727-3.2383 11.129-0.15625l56.516 54.699c4.8164 4.5781 12.156 4.5781 16.812-0.078125 2.4453-2.2891 3.7109-5.4453 3.6289-8.7617-0.078125-3.3164-1.4219-6.3945-3.9453-8.6836l-107.03-97.965c-17.758 3.3945-33.309 20.047-33.465 20.207-0.39453 0.47266-0.94531 0.94531-1.5 1.2617-29.363 19.023-46.648 3.6289-47.359 3-15.551-14.129-8.1289-36.387-1.3398-47.359 6.3906-10.496 13.098-19.18 19.809-26.441z"/>
  <path d="m398.73 266.05c-8.3672-3.3164-17.445-3.5508-25.496-0.55078-15.551 5.6055-38.125 19.258-58.172 51.938-0.15625 0.23828-11.207 18.547-1.4219 27.387 0.23828 0.23828 9.3125 7.3398 27.391-4.1055 4.0273-4.1836 23.285-22.73 46.176-24.863 2.2109-0.23828 4.4219 0.55078 6.0781 2.0508l109.71 100.48c0.078125 0 0.078125 0 0.078125 0.078125 8.918-2.2109 15.234-9.7891 18.074-13.973l-38.676-105.13z"/>
  <path d="m564.64 265.26c-14.84 1.0273-45.305 4.1836-64.484 12.234-4.2617 1.8164-6.3945 6.9453-4.7344 11.367l46.727 126.92c1.3438 3.4727 4.7344 5.918 8.5234 5.918h14.523c4.4961 0 8.1289-3.6289 8.1289-8.1289v-140.26c0-4.7344-3.9492-8.4453-8.6836-8.0469z"/>
  <path d="m186.8 401.49h13.734c4.0273 0 7.5-2.5234 8.6836-6.3945l38.281-126.61c1.3398-4.3398-0.71094-9-4.8164-10.891-21.785-9.707-42.305-12.391-55.566-12.941-4.6562-0.16016-8.4453 3.4727-8.4453 8.1289v140.57c0 4.5 3.6328 8.1289 8.1289 8.1289z"/>
 </g>
</svg>
