<?xml version="1.0" encoding="UTF-8"?>
<svg width="752pt" height="752pt" version="1.1" viewBox="0 0 752 752" xmlns="http://www.w3.org/2000/svg">
 <g fill="#0475e5">
  <path d="m492.67 227.93c-2.4844-1.9531-6.0859-1.5234-8.0352 0.96094-1.957 2.4844-1.5234 6.082 0.96094 8.0352 42.988 33.809 67.641 84.527 67.641 139.14 0 3.1602 2.5625 5.7227 5.7227 5.7227 3.1602 0 5.7227-2.5625 5.7227-5.7227 0-58.152-26.246-112.14-72.012-148.14z"/>
  <path d="m199.39 376.07c0-54.617 24.652-105.34 67.641-139.14 2.4844-1.9531 2.9141-5.5508 0.96094-8.0352s-5.5508-2.9141-8.0352-0.96094c-45.766 35.996-72.012 89.988-72.012 148.14 0 3.1602 2.5625 5.7227 5.7227 5.7227 3.1602 0 5.7227-2.5625 5.7227-5.7227z"/>
  <path d="m556.66 405.63c-3.1016-0.59766-6.1094 1.418-6.7148 4.5234-11.855 60.75-54.359 109.25-109.53 130.77l1.5469 11.621c59.996-22.391 106.41-74.562 119.22-140.2 0.60938-3.1055-1.4141-6.1094-4.5195-6.7148z"/>
  <path d="m312.17 540.91c-55.168-21.523-97.664-70.031-109.51-130.79-0.60156-3.1016-3.6094-5.1172-6.7109-4.5234-3.1016 0.60547-5.1289 3.6094-4.5234 6.7109 12.797 65.637 59.203 117.82 119.2 140.21z"/>
  <path d="m388.82 552.48c-4.1445 0.30078-8.3047 0.50391-12.516 0.50391-4.2148 0-8.3867-0.20703-12.539-0.50781l-1.5664 11.398c4.6641 0.35938 9.3672 0.55469 14.105 0.55469 4.7344 0 9.4258-0.19531 14.086-0.55469z"/>
  <path d="m294.73 212.24c5.6875 2.0859 8.543 4.9414 10.629 10.629 0.89453 2.4297 4.2852 2.4297 5.1758 0 2.0898-5.6875 4.9414-8.543 10.629-10.629 2.4297-0.89453 2.4297-4.2852 0-5.1758-5.6875-2.0898-8.543-4.9414-10.629-10.633-0.89062-2.4297-4.2812-2.4297-5.1758 0-2.0859 5.6875-4.9414 8.543-10.629 10.633-2.4297 0.89062-2.4297 4.2852 0 5.1758z"/>
  <path d="m432.12 212.24c5.6875 2.0859 8.543 4.9414 10.629 10.629 0.89453 2.4297 4.2852 2.4297 5.1797 0 2.0859-5.6875 4.9375-8.543 10.629-10.629 2.4297-0.89453 2.4297-4.2852 0-5.1758-5.6875-2.0898-8.543-4.9414-10.629-10.633-0.89453-2.4297-4.2852-2.4297-5.1797 0-2.0859 5.6875-4.9414 8.543-10.629 10.633-2.4258 0.89062-2.4258 4.2852 0 5.1758z"/>
  <path d="m357.34 195.89c1.1016 0.79688 1.5625 2.2148 1.1406 3.5156l-6.875 21.152c-0.94141 2.8945 2.375 5.3047 4.8359 3.5156l17.996-13.074c1.1016-0.80078 2.5938-0.80078 3.6953 0l17.996 13.074c2.4609 1.7891 5.7773-0.61719 4.8359-3.5156l-6.875-21.156c-0.41797-1.2969 0.042969-2.7148 1.1445-3.5156l17.996-13.77c2.4609-1.7891 1.1992-6.375-1.8477-6.375h-22.246c-1.3633 0-2.5703-0.18359-2.9883-1.4805l-6.875-20.812c-0.94141-2.8945-5.0352-2.7188-5.9766 0.17578l-6.875 20.551c-0.42188 1.293-1.625 1.5664-2.9883 1.5664h-22.246c-3.0469 0-4.3086 4.5859-1.8477 6.375z"/>
  <path d="m376.29 257.09c-18.941 0-34.297 15.355-34.297 34.297s15.355 34.297 34.297 34.297c18.941 0 34.301-15.355 34.301-34.297s-15.355-34.297-34.301-34.297zm14.738 37.871c-1.1641 7.2773-7.3672 12.559-14.742 12.559-7.3086 0-13.496-5.2227-14.719-12.414-0.15625-0.90234 0.097656-1.832 0.6875-2.5312s1.457-1.1094 2.375-1.1133l23.301-0.12109c0.94531 0 1.7891 0.39062 2.3867 1.0898 0.58984 0.69922 0.85156 1.6211 0.71094 2.5312z"/>
  <path d="m422.68 470.85-1.0469-7.9297-0.097656 0.074219-6.1797-41.996 0.10547-0.10547-1.0859-7.9102-3.7461-27.496c-0.14453-1.0586 1.125-1.6836 1.875-0.93359l14.383 14.379c3.0352 3.0391 3.0352 7.9492 0 10.988l-1.2305 1.2305 6.1719 41.984 25.711-23.461c13.902-13.922 13.902-36.484 0-50.387l0.042969-0.0625-19.336-19.227c-13.816-13.801-32.527-21.453-52.051-21.453l-19.793-0.003907c-19.52 0-38.25 7.6016-52.047 21.402l-19.336 19.297h0.039063c-13.902 13.875-13.902 36.484 0 50.41l25.734 23.48 6.168-41.965-1.2461-1.2461c-3.0391-3.0391-3.0391-7.9492 0-10.988l14.379-14.379c0.75-0.75 2.0195-0.125 1.8711 0.93359l-4.832 35.406 0.10156 0.10156-6.1367 41.863-0.11719-0.10938-17.738 132.74c-0.35547 2.6641 1.7266 4.8164 4.4102 4.8164h27.16c2.2266 0 4.0977-1.4062 4.4102-3.6094l14.715-106.66c0.25-1.8086 0.85156-3.457 1.7266-4.957 4.6406-7.8867 16.609-7.8594 21.227 0.03125 0.875 1.4961 1.4805 3.2188 1.75 5.0312l14.711 106.55c0.31641 2.207 2.1875 3.6172 4.4141 3.6172h27.156c2.6836 0 4.7656-2.1523 4.4102-4.8164zm-34.555-62.562-11.336 7.957-11.812-7.957c-0.34766-0.24219-0.76172-0.67578-0.66406-1.0898l9.5312-40.758c0.070312-0.29688-0.054688-0.60938-0.23828-0.85547l-6.6172-8.8398c-0.50781-0.6875-0.046875-1.5508 0.80859-1.5508h17.016c0.85547 0 1.3438 0.86328 0.83984 1.5508l-6.5859 8.8945c-0.18359 0.24609-0.24609 0.53125-0.17578 0.82812l9.6523 40.746c0.097657 0.41016-0.066406 0.83203-0.41797 1.0742z"/>
 </g>
</svg>
