<svg xmlns="http://www.w3.org/2000/svg" xmlns:xlink="http://www.w3.org/1999/xlink" width="750.948" height="592.945" viewBox="0 0 750.948 592.945">
  <defs>
    <linearGradient id="linear-gradient" x1="17.889" y1="3.785" x2="18.008" y2="6.355" gradientUnits="objectBoundingBox">
      <stop offset="0.01" stop-color="#fff"/>
      <stop offset="1" stop-color="#fff" stop-opacity="0"/>
    </linearGradient>
    <linearGradient id="linear-gradient-2" x1="19.963" y1="4.223" x2="23.043" y2="8.404" gradientUnits="objectBoundingBox">
      <stop offset="0.01"/>
      <stop offset="0.08" stop-opacity="0.69"/>
      <stop offset="0.21" stop-opacity="0.322"/>
      <stop offset="1" stop-opacity="0"/>
    </linearGradient>
    <linearGradient id="linear-gradient-3" x1="2.116" y1="1.184" x2="-1.95" y2="-0.63" xlink:href="#linear-gradient-2"/>
    <linearGradient id="linear-gradient-4" x1="0.551" y1="-0.098" x2="0.183" y2="3.842" xlink:href="#linear-gradient-2"/>
    <linearGradient id="linear-gradient-5" x1="0.111" y1="-0.201" x2="1.962" y2="2.916" xlink:href="#linear-gradient-2"/>
    <linearGradient id="linear-gradient-6" x1="-0.255" y1="9.159" x2="3.881" y2="-38.251" xlink:href="#linear-gradient-2"/>
    <linearGradient id="linear-gradient-7" x1="0.207" y1="-0.104" x2="1.869" y2="3.319" xlink:href="#linear-gradient-2"/>
    <linearGradient id="linear-gradient-8" x1="0.297" y1="-0.125" x2="1.223" y2="2.658" xlink:href="#linear-gradient-2"/>
    <linearGradient id="linear-gradient-9" x1="0.602" y1="0.418" x2="-0.83" y2="1.564" xlink:href="#linear-gradient-2"/>
    <linearGradient id="linear-gradient-10" x1="3.887" y1="-0.598" x2="3.992" y2="2.23" xlink:href="#linear-gradient"/>
    <linearGradient id="linear-gradient-11" x1="3.823" y1="-0.239" x2="6.632" y2="4.445" xlink:href="#linear-gradient-2"/>
    <linearGradient id="linear-gradient-12" x1="-19.297" y1="9.451" x2="-19.202" y2="12.55" xlink:href="#linear-gradient"/>
    <linearGradient id="linear-gradient-13" x1="-23.486" y1="11.365" x2="-20.881" y2="17.169" xlink:href="#linear-gradient-2"/>
  </defs>
  <g id="email" transform="translate(0.001 0.001)">
    <path id="Trazado_50" data-name="Trazado 50" d="M170.534,108.041C223.187,100.4,277.4,105.661,329.6,95.17c54.6-10.979,104.33-38.612,156.964-56.962s113.418-26.6,162.248.293c29.9,16.478,51.892,44.384,69.151,73.909A392.36,392.36,0,0,1,771.5,304.065c.488,33.425-3.393,67.083-13.651,98.909C723.563,509.332,619.8,582.949,510.378,605.648c-120.165,24.942-250.822-5.46-347.859-80.559C79.894,461.028-1.816,346.811,26.207,242.773,44.792,173.583,91.594,119.507,170.534,108.041Z" transform="translate(-20.59 -21.26)" fill="#68e1fd" opacity="0.18"/>
    <path id="Trazado_51" data-name="Trazado 51" d="M355.241,233.443l-59.946,44.365a5.987,5.987,0,0,1-8.366-1.248l-24.864-33.6a5.6,5.6,0,0,1-.975-2.106,5.967,5.967,0,0,1,2.223-6.26l59.966-44.365a6.006,6.006,0,0,1,4.992-.995,6.124,6.124,0,0,1,3.374,2.243l24.864,33.62a5.967,5.967,0,0,1-1.268,8.346Z" transform="translate(207.735 138.169)" fill="#68e1fd"/>
    <path id="Trazado_52" data-name="Trazado 52" d="M328.271,189.235l-11.1,49.845-56.085,1.775a5.967,5.967,0,0,1,2.223-6.26l59.966-44.365a6.006,6.006,0,0,1,4.992-.995Z" transform="translate(207.735 138.169)" fill="url(#linear-gradient)"/>
    <path id="Trazado_53" data-name="Trazado 53" d="M258.85,202.777l1.833,35.414L317.041,196.5,282.934,184.31l-3.959,17.824Z" transform="translate(245.935 175.114)" fill="url(#linear-gradient-2)"/>
    <path id="Trazado_54" data-name="Trazado 54" d="M506.355,77.192l-66.966,95.418L426.518,136.9a1242.236,1242.236,0,0,0-131.066,42.727c-49.416,19.676-97,44.131-110.668,69.4-31.338,58.055,42.278,83.718,42.278,83.718a202.616,202.616,0,0,1-42.025-1.014c-36.72-4.817-82.314-22.6-69.112-82.7,10.433-47.485,78.355-87.423,145.087-115.875h.1c9.751-4.134,19.5-8.015,28.978-11.7l.273-.117a1064.54,1064.54,0,0,1,109.069-35.1L393.015,55Z" transform="translate(67.775 10.798)" fill="#2085e9"/>
    <path id="Trazado_55" data-name="Trazado 55" d="M162.972,216.713c-31.338,58.055,42.278,83.718,42.278,83.718a202.616,202.616,0,0,1-42.025-1.014,228.336,228.336,0,0,1-15.445-20.144c-42.259-61.467,48.382-109.908,48.382-109.908,7.547-27.555,43.039-50.352,43.039-50.352V100.838h.1l28.978-11.7.273-.117,6.377,53.277-1.287,4.973C224.224,166.985,176.642,191.439,162.972,216.713Z" transform="translate(89.587 43.12)" fill="url(#linear-gradient-3)"/>
    <path id="Trazado_56" data-name="Trazado 56" d="M257.057,266.7a24.317,24.317,0,0,0-3.237,9.926,17.1,17.1,0,0,0,3.257,9.751,29.447,29.447,0,0,0,18.116,12.305,4.369,4.369,0,0,0,2.945-.137,3.529,3.529,0,0,0,1.424-1.677c1.775-3.608,1.053-7.9-.117-11.7s-2.769-7.664-2.594-11.7c.293-7.547,11.077-22.114-1.482-25.663C264.9,244.761,260.392,259.972,257.057,266.7Z" transform="translate(201.003 193.603)" fill="#b2857f"/>
    <path id="Trazado_57" data-name="Trazado 57" d="M253.206,262.35s-3.705,3.042-3,6.4,14.021,26.736,33,24.064-12.188-21.451-12.188-21.451Z" transform="translate(197.483 207.801)" fill="#68e1fd"/>
    <path id="Trazado_58" data-name="Trazado 58" d="M257.67,257.92a3.237,3.237,0,0,1,3.1,2.886,13.417,13.417,0,0,0,8.658,9.751c4.953,1.346,9.477-2.789,11.7-1.619s8.463,17.453,6.825,22.095-9.321,4.524-16.147,1.346-19.267-15.874-20.223-20.886S254.96,259.266,257.67,257.92Z" transform="translate(198.752 203.592)" fill="#fff"/>
    <path id="Trazado_59" data-name="Trazado 59" d="M215.74,281.976a27.009,27.009,0,0,0-3.12,11.194,19.228,19.228,0,0,0,4.1,10.589,32.781,32.781,0,0,0,20.749,12.832,4.8,4.8,0,0,0,3.257-.292,4.31,4.31,0,0,0,1.521-1.95c1.794-4.1.761-8.834-.7-13.046s-3.413-8.366-3.491-12.812c0-8.385,11.252-25.137-2.867-28.471C223.385,257.229,219.094,274.351,215.74,281.976Z" transform="translate(161.859 205.297)" fill="#b2857f"/>
    <path id="Trazado_60" data-name="Trazado 60" d="M211.785,277s-3.9,3.569-3.023,7.254,16.829,29.057,37.812,25.156S232.027,286.3,232.027,286.3Z" transform="translate(158.072 221.72)" fill="#68e1fd"/>
    <path id="Trazado_61" data-name="Trazado 61" d="M216.374,271.88a3.608,3.608,0,0,1,3.608,3.081,14.762,14.762,0,0,0,10.082,10.355c5.577,1.248,10.433-3.53,12.89-2.36s10.258,19.013,8.619,24.22-10.16,5.48-17.9,2.282-22.192-16.732-23.4-22.251S213.43,273.518,216.374,271.88Z" transform="translate(159.431 216.855)" fill="#fff"/>
    <path id="Trazado_62" data-name="Trazado 62" d="M257.338,166.922a9.607,9.607,0,0,1,1.56.41c12.325,4.68,27.165,25.546,35.55,35.453a176.426,176.426,0,0,1,26.95,41.654c14.158,31.611,15.464,70.886-4.427,99.241l-15.289-3.2a6.611,6.611,0,0,1-3.608-1.58,6.825,6.825,0,0,1-1.033-5.285,137.075,137.075,0,0,0-1.5-32.7,65.466,65.466,0,0,0-6.708-21.217c-4.8-8.639-12.364-15.328-19.735-21.88-23.4-20.73-44.384-42.161-55.987-71.471C223.582,181.2,246.047,164.933,257.338,166.922Z" transform="translate(162.324 116.975)" fill="#473f47"/>
    <path id="Trazado_63" data-name="Trazado 63" d="M240.774,175.534a6.65,6.65,0,0,1,1.424.78c10.9,7.41,20.476,31.2,26.326,42.746a177.636,177.636,0,0,1,16.5,46.8c6.377,34.029-1.482,72.524-27.438,95.555l-14.138-6.689a6.708,6.708,0,0,1-3.14-2.36,6.884,6.884,0,0,1,.234-5.4A136.7,136.7,0,0,0,246.7,314.81a65.27,65.27,0,0,0-1.58-22.192c-2.633-9.5-8.444-17.765-14.08-25.878-17.843-25.585-33.327-51.346-37.773-82.548C204.639,181.618,230.283,171.049,240.774,175.534Z" transform="translate(143.474 124.276)" fill="#473f47"/>
    <path id="Trazado_64" data-name="Trazado 64" d="M274.561,164.767a1.111,1.111,0,0,1,0,.254c.176,3.257,1.248,6.123.41,9.438-.9,3.686-4.329,7.02-8.073,6.474-3.12-.449-5.246-3.257-7.644-5.3a33.814,33.814,0,0,0-8.268-4.875c-3.9-1.814-7.917-3.51-11.935-5.07-2.574-1.014-7.488-1.638-8.58-4.271s-.741-6.786-1.053-9.575L224.56,107.59l45.184,37.052a66.888,66.888,0,0,1,4.31,12.617,35.905,35.905,0,0,1,.507,7.508Z" transform="translate(173.203 60.763)" fill="#fff"/>
    <path id="Trazado_65" data-name="Trazado 65" d="M281.711,174.507c.273,2.613.878,5.207,1.19,7.8,1.638,14.411-.137,29.681,5.714,43.351,1.326,3.042,3.042,6.279,2.262,9.516a11.934,11.934,0,0,1-5.4,6.474c-11.935,8.346-26.424,12.071-40.543,15.6-10.628,2.691-25.585,7.586-36.194,2.867-4.524-1.95-6.474-6.474-8.327-10.921-5.85-14.158-8.931-29.759-11.7-44.852-.351-1.95-.722-3.9-1.053-5.948q-3.452-20.418-5.4-41.186c-.9-10.063-1.307-20.983,4.427-29.252,7.605-11.038,23.713-19.5,36.252-23.4a43.525,43.525,0,0,1,12.539-2.087,53.3,53.3,0,0,1,17.668,3.9c6.689,2.438,12.637,4.466,16.439,10.394a86.388,86.388,0,0,1,9.594,22.114,81.9,81.9,0,0,1,2.984,22.387c0,3.705-.507,7.449-.488,11.135a9.947,9.947,0,0,0,.039,2.106Z" transform="translate(132.511 55.899)" fill="#fff"/>
    <path id="Trazado_66" data-name="Trazado 66" d="M233.049,250.442c-4.056,1.7-14.119-1.092-17.375-1.307-1.95-.117-3.9-.9-5.85-1.131-9.751-1.346-13.9-28.062-15.6-35.1-4.563-18.818-10.531-38.163-12.91-57.274-.9-7.391-1.541-14.938.117-22.173s5.85-14.216,12.578-17.551c11.7-5.733,19.6,32.469,22.153,40.27q4.8,14.626,9.594,29.251c1.4,4.368,1.853,9.224,4.251,13.222,3.647,6.065,6.728,4.914,12.832,3.9,12.812-2.223,24.786-7.664,37.4-10.706a4.076,4.076,0,0,1,3.218.156,3.764,3.764,0,0,1,1.307,2.2,28.531,28.531,0,0,1,1.209,7.586,4.544,4.544,0,0,1-.312,2.165,4.9,4.9,0,0,1-1.775,1.677,97.056,97.056,0,0,1-27.75,12.617c-7.8,2.184-15.191,5.85-20.457,12.364-4.739,5.85,1.424,12.013-1.151,18.35A2.672,2.672,0,0,1,233.049,250.442Z" transform="translate(131.25 68.108)" fill="#020202" opacity="0.1"/>
    <path id="Trazado_67" data-name="Trazado 67" d="M182.25,160.525l74.767-25.215,54.837,31.28-76.307,31.28Z" transform="translate(173.157 128.559)" fill="#68e1fd"/>
    <path id="Trazado_68" data-name="Trazado 68" d="M182.25,160.525l74.767-25.215,54.837,31.28-76.307,31.28Z" transform="translate(173.157 128.559)" fill="url(#linear-gradient-4)"/>
    <path id="Trazado_69" data-name="Trazado 69" d="M183.83,158.455,258.6,133.24l54.837,31.28L237.126,195.8Z" transform="translate(174.658 126.593)" fill="#68e1fd"/>
    <path id="Trazado_70" data-name="Trazado 70" d="M227.576,184.5l61.857-27.321L259.246,140.6,197.74,163.884Z" transform="translate(187.874 133.585)" fill="url(#linear-gradient-5)"/>
    <path id="Trazado_71" data-name="Trazado 71" d="M211.16,184.579h73.733l63.476-39.529-60.9,8.249Z" transform="translate(200.624 137.813)" fill="#68e1fd"/>
    <path id="Trazado_72" data-name="Trazado 72" d="M240.444,112.3c-.761,2.75-1.58,5.5-2.457,8.229-1.95,6.24-5.85,11.935-12.637,13.436a32.471,32.471,0,0,1-4.544.546h-1.014a.156.156,0,0,1-.137,0h-.175a7.605,7.605,0,0,0-2.262.234,1.287,1.287,0,0,0-.585.176c-1.95.9-1.794,4.056-1.658,5.85a8.97,8.97,0,0,1-.663,6.006.252.252,0,0,1-.117.2,6.026,6.026,0,0,1-4.232,1.95,13.28,13.28,0,0,1-9.341-2.847,15.406,15.406,0,0,1-3.569-4.973,11.289,11.289,0,0,1-.663-1.658,10.628,10.628,0,0,1-.254-2.945,32,32,0,0,1,.429-4.524,88.212,88.212,0,0,0,1.7-8.951,44.46,44.46,0,0,1,.312-4.563,21.726,21.726,0,0,0,.546-2.945c0-2.867-1.463-5.636-1.482-8.541a42.163,42.163,0,0,1,.8-8.561,33.8,33.8,0,0,1,7.079-15.23c6.689-7.8,18.545-11.7,27.867-7.254a19.93,19.93,0,0,1,10.082,11C246.587,95.14,242.686,104.286,240.444,112.3Z" transform="translate(146.184 28.907)" fill="#b2857f"/>
    <path id="Trazado_73" data-name="Trazado 73" d="M221.647,166.142c1.638-.2,3.3-.371,4.934-.507a7.39,7.39,0,0,1,2.925.176,2.73,2.73,0,0,1,1.95,1.95,2.281,2.281,0,0,0,.214,1.034,1.56,1.56,0,0,0,.975.527c5.85,1.521,11.9,3.9,15.386,8.717a3.569,3.569,0,0,1,.78,3.432c-.8,1.638-3.14,1.4-4.895.917a2.145,2.145,0,0,1,0,2.457,2.711,2.711,0,0,1-2.282,1.092,4.834,4.834,0,0,0-1.755,0,4.428,4.428,0,0,0-1.092.722,7.254,7.254,0,0,1-5.636,1.014c-1.95-.293-3.9-.956-5.85-1.112-3.023-.234-5.733.761-8.541-.468a41.478,41.478,0,0,0-9.75-3.393,5.09,5.09,0,0,1-2.828-1.463,4.778,4.778,0,0,1,0-4.251,21.45,21.45,0,0,1,2.691-6.767c1.658-2.34,4.427-2.75,7.137-3.218C218,166.669,219.775,166.415,221.647,166.142Z" transform="translate(155.269 115.844)" fill="#b2857f"/>
    <path id="Trazado_74" data-name="Trazado 74" d="M200.523,117.515c-14.333,23.733-28.491,51.229-32.567,78.882-1.073,7.274-1.658,15.854,1.755,22.68,5.577,11.116,24.552,13.28,35.472,14.392a224.772,224.772,0,0,0,39.353.526,1.775,1.775,0,0,0,2.067-2.106l.546-12.617a3.1,3.1,0,0,0-.234-1.736,3.335,3.335,0,0,0-2.789-1.151,77.478,77.478,0,0,1-22.27-5.168c-6.767-2.691-19.989-9.75-19.033-18.643.527-4.992,6.006-11.077,8.717-15.016,6.513-9.458,13.534-18.623,20.71-27.594C232.251,149.964,232.953,98.93,200.523,117.515Z" transform="translate(118.631 66.323)" fill="#fff"/>
    <path id="Trazado_75" data-name="Trazado 75" d="M244.793,108.132a7.06,7.06,0,0,0,4.6-3.491c.8,2.243,4.583,1.56,5.538-.644s0-4.7-.858-6.9a5.538,5.538,0,0,0,3.159-8.717c-.644-.722-1.541-1.346-1.716-2.321a5.383,5.383,0,0,1,.332-2.184,6.533,6.533,0,0,0-2.672-5.987,19.306,19.306,0,0,0-6.318-2.847,4.758,4.758,0,0,0-1.073-6.2,11.252,11.252,0,0,0-6.416-2.3c-3.374-.371-7.1-.215-9.75,1.95a9.575,9.575,0,0,0-11.7,1.248,4.583,4.583,0,0,1-2.184,1.638,3.9,3.9,0,0,1-1.833-.312,13.182,13.182,0,0,0-7.8-.8,5.382,5.382,0,0,0-4.076,6.026,4.778,4.778,0,0,0-4.076,3.627,3.7,3.7,0,0,1-.546,1.677c-.566.663-1.56.624-2.4.7a6.377,6.377,0,0,0,.117,12.715,5.85,5.85,0,0,0,.839,4.6c1.034,1.658,2.418,1.775,3.783,2.808.8.624.488.683.449,1.95a20.845,20.845,0,0,0,.175,3.491,25.643,25.643,0,0,0,1.658,6.494c.585,1.5,1.326,2.945,1.853,4.466a35.555,35.555,0,0,1,1.443,7.157l3.3-9.321a.7.7,0,0,0,0-.39.8.8,0,0,0-.351-.41,8,8,0,0,1-2.3-9.751,3.257,3.257,0,0,1,2.535-1.95c1.326,0,2.34,1.151,2.984,2.3a15.777,15.777,0,0,1,1.541,3.9,21.451,21.451,0,0,1,3.647-5.85c.644-.722,1.424-1.95,2.457-1.58s1.521,2.243,1.95,2.925a12.228,12.228,0,0,0,4.115-2.652,7.118,7.118,0,0,0,3.471,6.845c2.457,1.151,6.026-.488,6.026-3.218,0,1.229,5.324-.839,5.714-1.073a4.466,4.466,0,0,0,4.388,2.379Z" transform="translate(139.592 21.61)" fill="#473f47"/>
    <path id="Trazado_76" data-name="Trazado 76" d="M207.323,105.747a26.578,26.578,0,0,0,4.739.2,1.288,1.288,0,0,0-.585.175c-1.95.9-1.794,4.056-1.658,5.85a8.97,8.97,0,0,1-.663,6.006,6.143,6.143,0,0,1-1.794-.254,4.875,4.875,0,0,1-1.619-.956,11.506,11.506,0,0,1-3.666-12.325A22,22,0,0,0,207.323,105.747Z" transform="translate(151.341 57.771)" fill="#96625e"/>
    <path id="Trazado_77" data-name="Trazado 77" d="M251.762,123.66s35.706,26.346,30.773,52.653c-4.583,24.474-8.7,43.936-8.7,43.936L257.125,210.5s11.174-36.876-12.149-52.906S251.762,123.66,251.762,123.66Z" transform="translate(184.184 76.031)" fill="#fff"/>
    <path id="Trazado_78" data-name="Trazado 78" d="M246.269,172.777l-1.6,8.288a7.2,7.2,0,0,0-.117,3.218,2.438,2.438,0,0,0,2.282,1.95c1.17,0,2.165-1.287,3.335-1.053a4.055,4.055,0,0,1,1.17.565c2.5,1.365,5.519,0,8.151-1.229a2.165,2.165,0,0,1,1.385-.254c.565.156.917.722,1.4,1.073a2.808,2.808,0,0,0,3.179-.2,6.5,6.5,0,0,0,1.95-2.769,15.171,15.171,0,0,0-1.034-14.47,13.28,13.28,0,0,0-12.676-4.719C248.628,163.982,247.185,167.96,246.269,172.777Z" transform="translate(192.076 113.382)" fill="#b2857f"/>
    <path id="Trazado_79" data-name="Trazado 79" d="M209.58,186.649h73.733l63.476-39.529-60.9,8.249Z" transform="translate(199.123 139.78)" fill="#68e1fd"/>
    <path id="Trazado_80" data-name="Trazado 80" d="M212.661,165.32l-3.081,4.037h73.733l3.081-4.037Z" transform="translate(199.123 157.072)" fill="url(#linear-gradient-6)"/>
    <path id="Trazado_81" data-name="Trazado 81" d="M313.947,145.05l-3.081,4.037L247.39,188.615l3.081-4.037Z" transform="translate(235.046 137.813)" fill="#68e1fd"/>
    <path id="Trazado_82" data-name="Trazado 82" d="M313.947,145.05l-3.081,4.037L247.39,188.615l3.081-4.037Z" transform="translate(235.046 137.813)" fill="url(#linear-gradient-7)"/>
    <path id="Trazado_83" data-name="Trazado 83" d="M279.686,153.61l50.43-7.04-52.594,32.255-57.391.995Z" transform="translate(209.147 139.257)" fill="#fff"/>
    <path id="Trazado_84" data-name="Trazado 84" d="M213.679,158l28.549-10.589L228.46,137.35,199.17,147.412Z" transform="translate(189.233 130.497)" fill="url(#linear-gradient-8)"/>
    <path id="Trazado_85" data-name="Trazado 85" d="M272.062,265.383,158.781,317.1a10,10,0,0,1-13.241-4.934l-28.979-63.5a9.243,9.243,0,0,1-.878-3.764,9.965,9.965,0,0,1,5.85-9.458l113.281-51.717a10.082,10.082,0,0,1,8.522.117,9.945,9.945,0,0,1,4.719,4.817L277,252.181a9.965,9.965,0,0,1-4.934,13.2Z" transform="translate(69.753 132.263)" fill="#68e1fd"/>
    <path id="Trazado_86" data-name="Trazado 86" d="M272.062,265.383,158.781,317.1a10,10,0,0,1-13.241-4.934l-28.979-63.5a9.243,9.243,0,0,1-.878-3.764,9.965,9.965,0,0,1,5.85-9.458l113.281-51.717a10.082,10.082,0,0,1,8.522.117,9.945,9.945,0,0,1,4.719,4.817L277,252.181a9.965,9.965,0,0,1-4.934,13.2Z" transform="translate(69.753 132.263)" fill="url(#linear-gradient-9)"/>
    <path id="Trazado_87" data-name="Trazado 87" d="M274.761,264.21,161.48,315.926a10,10,0,0,1-13.241-4.934L119.26,247.517a9.751,9.751,0,0,1-.9-3.764,10.023,10.023,0,0,1,5.85-9.478l113.281-51.7a10.023,10.023,0,0,1,13.241,4.914l28.979,63.515a9.965,9.965,0,0,1-4.953,13.2Z" transform="translate(72.299 131.155)" fill="#68e1fd"/>
    <path id="Trazado_88" data-name="Trazado 88" d="M245.978,182.626,210.6,260.2l-92.24-16.5a10.024,10.024,0,0,1,5.85-9.477l113.281-51.7a9.965,9.965,0,0,1,8.483.1Z" transform="translate(72.299 131.107)" fill="url(#linear-gradient-10)"/>
    <path id="Trazado_89" data-name="Trazado 89" d="M132.623,208.252l-9.263,58.484,106.495-48.6-51.5-31.709L165.7,214.18Z" transform="translate(117.205 177.128)" fill="url(#linear-gradient-11)"/>
    <path id="Trazado_90" data-name="Trazado 90" d="M360.923,193.427l-73.168-14.45a5.967,5.967,0,0,1-4.7-7.02L291.149,131a5.674,5.674,0,0,1,.878-2.145,5.967,5.967,0,0,1,6.143-2.574l73.168,14.45a5.85,5.85,0,0,1,4.1,3.023,6.065,6.065,0,0,1,.624,4l-8.112,40.952a5.967,5.967,0,0,1-7.02,4.719Z" transform="translate(228.671 78.418)" fill="#68e1fd"/>
    <path id="Trazado_91" data-name="Trazado 91" d="M370.958,143.738,326.652,169.09l-39-40.25a5.967,5.967,0,0,1,6.143-2.574l73.168,14.45A5.851,5.851,0,0,1,370.958,143.738Z" transform="translate(233.145 78.399)" fill="url(#linear-gradient-12)"/>
    <path id="Trazado_92" data-name="Trazado 92" d="M292.022,119.5,267.08,144.715l68.761,13.592-13.963-33.425-15.835,9.068Z" transform="translate(253.754 113.538)" fill="url(#linear-gradient-13)"/>
  </g>
</svg>
