<?xml version="1.0" encoding="UTF-8"?>
<svg width="752pt" height="752pt" version="1.1" viewBox="0 0 752 752" xmlns="http://www.w3.org/2000/svg">
 <path d="m552.08 513.08h-50.48l20.375-25.586c8.0625-8.2812 8.7031-21.348 1.4375-30.449-7.25-8.8789-21.023-10.934-30.324-4.8203l-32.625 15.465v-104.16c0-14.133-11.535-25.637-25.715-25.637-3.9258 0-7.6953 0.85938-11.066 2.4648-2.7461-11.242-12.91-19.613-24.988-19.613-12.535 0-22.328 8.7852-24.926 19.664-3.3711-1.6133-7.1406-2.5195-11.121-2.5195-14.148 0-25.148 11.211-25.621 24.711-3.1875-1.4219-6.7148-2.2031-10.426-2.2031-14.359 0-25.641 11.59-25.641 25.637v89.09c0 0.44141 0.039063 0.88281 0.11328 1.3164l6.3906 36.648h-34.766l-0.003906-366.7h166.23v56.027c0 2.0703 0.83594 4.0508 2.3203 5.4922l37.688 36.586c1.4883 1.4414 3.4102 2.1602 5.332 2.1602 1.957 0 3.9219-0.74609 5.4102-2.2422l36.586-36.582c1.4336-1.4336 2.2422-3.3789 2.2422-5.4102v-56.031h23.582zm-207.42-39.645c4.2266 0 7.6523-3.4219 7.6523-7.6523v-102.26c0-5.5078 4.4297-10.328 10.328-10.328 5.7422 0 10.41 4.6328 10.41 10.328v102.26c0 4.2305 3.4258 7.6523 7.6523 7.6523s7.6523-3.4219 7.6523-7.6523v-119.32c0-5.4023 4.2578-10.41 10.328-10.41 5.7422 0 10.41 4.6719 10.41 10.41v119.32c0 4.2305 3.4258 7.6523 7.6523 7.6523 4.2266 0 7.6523-3.4219 7.6523-7.6523l0.015624-102.26c0-5.4609 4.3789-10.328 10.332-10.328 5.7422 0 10.406 4.6328 10.406 10.328v116.27c0 2.625 1.3438 5.0664 3.5625 6.4648 2.2227 1.4062 5.0078 1.5703 7.3711 0.44922l44.086-20.898c1.3906-0.66016 2.4336-1.9375 5.375-1.9375 2.375 0 4.5078 1.0078 5.9531 2.7891 2.457 3.0703 2.2461 7.3477-0.99219 10.727l-74.469 93.258h-103.01c-22.98-131.82-15.055-86.355-16.77-96.191v-88.422c0-5.5 4.4102-10.328 10.332-10.328 5.7422 0 10.41 4.6328 10.41 10.328v79.754c0.003906 4.2305 3.4297 7.6523 7.6562 7.6523zm168.53-327.03v52.836l-29.008 29.008-29.953-29.074v-52.77zm-313.26 382.96v-344.86c0-21.02 17.098-38.121 38.117-38.121h19.34v366.7h-18.805c-15.473 0-29.371 6.543-38.652 16.289zm104.47 49v27.246h-65.824c-20.988 0-37.938-16.375-38.578-37.281-0.007813-0.27734-0.03125-1.0117-0.070313-1.2891 0-20.926 16.82-38.656 38.648-38.656h71.547l7.3789 42.328h-5.4492c-4.2227 0-7.6523 3.4219-7.6523 7.6523zm15.309 7.6562h135.32v19.59h-135.32zm135.87-15.309 33.824-42.328h62.676v14.195h-60.199v15.309h60.199v18.23l-82.191-0.003906c-0.97266-3.1094-3.7695-5.4023-7.1992-5.4023zm14.762 34.898v-14.188h81.742v14.188z" fill="#0475e5"/>
</svg>
