<?xml version="1.0" encoding="UTF-8"?>
<svg width="752pt" height="752pt" version="1.1" viewBox="0 0 752 752" xmlns="http://www.w3.org/2000/svg">
 <path d="m233.92 451.27v123.64c-0.003906 5.0234-2.0039 9.8359-5.5547 13.387-3.5508 3.5547-8.3672 5.5508-13.387 5.5547h-37.883c-5.0234-0.003906-9.8398-2-13.391-5.5547-3.5508-3.5508-5.5469-8.3633-5.5547-13.387v-123.64c0.007812-5.0234 2.0039-9.8359 5.5547-13.391 3.5508-3.5508 8.3672-5.5469 13.391-5.5508h37.883c5.0195 0.003906 9.8359 2 13.387 5.5508 3.5508 3.5547 5.5508 8.3672 5.5547 13.391zm355.25-41.641c-3.5039-6.5977-9.5234-11.496-16.695-13.582-7.1719-2.0898-14.883-1.1875-21.379 2.5l-115.36 65.637v0.003906c4.3125 8.3438 6.5547 17.602 6.5352 26.992 0.45703 14.297-4.7656 28.191-14.527 38.645-9.7617 10.457-23.266 16.621-37.559 17.145h-42.621c-5.2305 0-9.4727-4.2422-9.4727-9.4727 0-5.2305 4.2422-9.4727 9.4727-9.4727h42.621c10.184-0.20312 19.676-5.2031 25.605-13.492 4.2227-5.875 6.7852-12.781 7.4102-19.992 0.62891-7.2109-0.69922-14.457-3.8477-20.977-2.6172-5.5898-6.7266-10.348-11.871-13.758-5.1445-3.4102-11.129-5.332-17.297-5.5625h-34.477c-1.5117-6.1016-4.9805-11.539-9.8672-15.488-4.8906-3.9492-10.938-6.1953-17.219-6.3906h-48.68c-6.2812 0.19531-12.328 2.4414-17.219 6.3906-4.8867 3.9492-8.3555 9.3867-9.8672 15.488v106.74h8.9961l125.49 30.594c28.352 6.1016 57.863-2.5625 78.418-23.016 0.050781-0.050782 118.48-118.02 118.48-118.02 5.1914-5.3398 8.4844-12.234 9.375-19.629 0.88672-7.3906-0.67578-14.871-4.4492-21.289zm-431.02-90.453v-132.6c0.007812-7.5352 3.0039-14.758 8.332-20.086 5.3281-5.3242 12.551-8.3203 20.082-8.332h132.59c7.5312 0.011718 14.754 3.0078 20.082 8.332 5.3242 5.3281 8.3203 12.551 8.3281 20.086v19.895c14.371 2.9375 26.57 12.363 33.035 25.531 6.4648 13.164 6.4648 28.582 0 41.75-6.4648 13.164-18.664 22.594-33.035 25.531v19.895c-0.007812 7.5312-3.0039 14.754-8.3281 20.082-5.3281 5.3281-12.551 8.3242-20.082 8.332h-28.414c-5.2305 0-9.4727-4.2422-9.4727-9.4727 0-10.148-5.4141-19.527-14.203-24.605-8.793-5.0742-19.625-5.0742-28.414 0-8.7891 5.0781-14.207 14.457-14.207 24.605 0 5.2305-4.2383 9.4727-9.4688 9.4727h-28.414c-7.5312-0.007813-14.754-3.0039-20.082-8.332s-8.3242-12.551-8.332-20.082zm37.883-85.246h0.003906c-0.007812 2.5195 0.98438 4.9336 2.7617 6.7188 1.7773 1.7812 4.1914 2.7852 6.707 2.7852 2.5156 0 4.9297-1.0039 6.707-2.7852 1.7773-1.7852 2.7734-4.1992 2.7656-6.7188v-18.941h28.414-0.003906c5.2305 0 9.4727-4.2422 9.4727-9.4727s-4.2422-9.4727-9.4727-9.4727h-37.883c-5.2305 0.003907-9.4688 4.2422-9.4688 9.4727zm208.36 85.246v-28.414c0-2.5117 0.99609-4.9219 2.7734-6.6992 1.7773-1.7773 4.1875-2.7734 6.6992-2.7734 10.152 0 19.531-5.4141 24.605-14.207 5.0781-8.793 5.0781-19.625 0-28.414-5.0742-8.793-14.453-14.207-24.605-14.207-2.5117 0-4.9219-1-6.6992-2.7734-1.7773-1.7773-2.7734-4.1875-2.7734-6.6992v-28.414c0.007813-7.5352 3.0039-14.758 8.332-20.086 5.3242-5.3242 12.547-8.3203 20.082-8.332h132.59c7.5352 0.011718 14.758 3.0078 20.082 8.332 5.3281 5.3281 8.3242 12.551 8.332 20.086v132.6c-0.007812 7.5312-3.0039 14.754-8.332 20.082-5.3242 5.3281-12.547 8.3242-20.082 8.332h-19.895c-2.9336 14.371-12.359 26.574-25.523 33.039-13.168 6.4648-28.586 6.4648-41.75 0-13.168-6.4648-22.594-18.668-25.527-33.039h-19.895c-7.5352-0.007813-14.758-3.0039-20.082-8.332-5.3281-5.3281-8.3242-12.551-8.332-20.082zm94.711-113.66c-0.003907 2.5117 0.99609 4.9219 2.7734 6.6992 1.7734 1.7773 4.1836 2.7734 6.6953 2.7734h28.414v18.941c-0.007812 2.5195 0.98438 4.9336 2.7617 6.7188 1.7773 1.7812 4.1914 2.7852 6.707 2.7852 2.5195 0 4.9336-1.0039 6.707-2.7852 1.7773-1.7852 2.7734-4.1992 2.7656-6.7188v-28.414c0-2.5117-0.99609-4.9219-2.7734-6.6992-1.7773-1.7734-4.1875-2.7734-6.6992-2.7734h-37.883c-2.5117 0-4.9219 1-6.6953 2.7734-1.7773 1.7773-2.7773 4.1875-2.7734 6.6992z" fill="#0475e5"/>
</svg>
