<?xml version="1.0" encoding="UTF-8"?>
<svg width="752pt" height="752pt" version="1.1" viewBox="0 0 752 752" xmlns="http://www.w3.org/2000/svg">
 <g fill="#0475e5">
  <path d="m471.29 286.43c-19.039-19.512-41.203-32.016-64.121-38.266-8.6211 4.4531-22.449 10.512-44.895 18.469 0.66406 0 1.4219 0.09375 2.1797 0.1875-13.164 8.9961-26.426 17.996-39.59 27.086-11.176 7.4844-14.113-2.082-11.555-4.9258-14.113 5.875-16.48 18.566-56.168 79.848-2.8398 4.4531-5.9688 9-10.23 11.652 1.043-32.582 11.555-62.418 28.32-85.812 0.47266-0.28516 0.94531-0.66406 1.5156-1.043-2.7461 0.37891-5.5898 0.56641-8.4297 0.56641-2.4609 0-5.0195-0.09375-7.5781-0.47266-19.699 22.734-32.488 52.285-33.719 86.762-0.09375 1.7969-0.09375 3.5977-0.09375 5.4922 0 51.242 26.898 95.949 67.152 120.95l28.035 10.609c0.28516-0.37891 0.66406-0.75781 1.043-1.2305-24.816-11.648-45.559-32.582-59.102-59.008 1.2305-7.1992 18.184-36.938 21.879-40.539 5.9688-5.8711 12.598-3.4102 15.535 4.3555 1.2305 3.5039 3.3164 8.5234 3.5977 12.406 8.3359 10.797-5.1133 18.281 1.7031 25.387 2.1797 2.3672 6.9141 4.6406 8.2422 11.84 5.8711 32.395 20.742-0.75781 40.16 12.598 3.125 2.1797 5.5898 5.1133 7.3867 8.7148 8.7148-4.3555 19.32-9.2812 32.109-14.871-0.85156-3.4102-1.9883-7.7695-1.8008-11.082-7.5781-12.691 7.1055-17.047 0.94531-25.48-1.9883-2.5547-6.3477-5.3984-6.9141-12.879-2.4609-32.68-20.934-2.3672-38.645-18.184-13.641-12.219-10.133-41.863 5.1133-55.504 9.0938-8.0508 5.3047-9.8516 3.0312-15.629-3.6953-9.0938 5.8711-17.902 12.598-11.555-7.1055-26.234 16.668-6.7266 13.355-23.961-0.75781-3.5977-6.0625-15.535 7.957-21.121 16.953-6.6328 19.32 7.3867 66.207 4.7344 0.1875-0.57031 0.37891-1.1367 0.56641-1.707 21.5 25.574 34.855 60.617 34.949 99.168-5.9688 4.832-4.2617-1.8945-6.4414-3.9766-1.5156-1.3242-3.8828 0.28516-4.4531 2.3672-1.1367 4.2617 2.5586 9.375-0.1875 12.977-2.1797 2.9336-7.6719 1.8945-8.9961-6.6328-0.66406-4.2617-0.37891-8.8086-1.8008-12.785-1.4219-3.9766-5.5898-7.1992-8.8086-5.1133-2.082 1.3242-2.1797 2.3672-13.355 24.059 0.94531 0.09375 1.9883 0.09375 3.0312 0.09375 1.8945 14.68-10.988 24.723-13.355 38.547-3.0312 17.617 2.082 12.312-10.512 29.934 4.832-1.9883 9.9453-4.0742 15.344-6.2539 9.1875-5.7773 19.984-8.7148 32.016-8.7148 6.7266 0 13.734 0.85156 21.121 2.6523 25.953-50.863 22.828-116.5-24.344-164.71z"/>
  <path d="m492.31 464.96c-0.09375 0.85156-0.1875 1.7031-0.1875 2.5586v105.52c-82.496 11.648-114.8 45.844-180.25 9.1875-6.6289-3.7891-44.422-26.898-64.027-38.832-6.9141-4.168-10.23-12.504-8.0508-20.363 2.8398-10.418 14.02-16.102 24.152-12.312l69.047 26.141c-1.7031-3.7891-1.6094-7.0117-0.09375-9.9453 6.5352-13.164 116.12-57.02 116.12-57.02 12.789-8.6211 28.512-8.5273 43.285-4.9297z"/>
  <path d="m502.45 241.91c-3.7891 10.23-15.535 14.777-25.289 10.039l-66.301-32.676c1.4219 3.8828 1.043 7.1055-0.75781 9.9453-7.7656 12.406-121.05 45.652-121.05 45.652-9.1875 5.1133-19.32 5.9688-29.457 4.4531 0.28516-1.1367 0.37891-2.3672 0.37891-3.5977v-108.07c40.066-2.7461 85.719-11.84 85.719-11.84 39.969-9.1875 73.688 8.7148 90.547 20.457 6.3477 4.2617 41.77 30.879 60.051 44.609 6.5352 4.832 8.9961 13.453 6.1562 21.027z"/>
  <path d="m596.12 460.32h-82.594c-3.9766 0-7.1992 3.2188-7.1992 7.1992v107.79c0 3.9766 3.2188 7.1992 7.1992 7.1992h82.594c3.9766 0 7.1992-3.2188 7.1992-7.1992v-107.79c0-3.9805-3.2188-7.1992-7.1992-7.1992zm-28.055 26.906c-1.293 7.3125-8.1523 12.266-15.695 10.973-7.1602-1.293-12.035-8.2266-10.816-15.465 1.2188-7.3906 8.1523-12.266 15.539-11.121 7.3906 1.293 12.266 8.375 10.973 15.613z"/>
  <path d="m238.47 160.74h-82.496c-4.0742 0-7.293 3.2188-7.293 7.1992v107.79c0 3.9766 3.2188 7.1992 7.293 7.1992h82.496c3.9766 0 7.293-3.2227 7.293-7.1992v-107.79c0-3.9805-3.3125-7.1992-7.293-7.1992zm-27.992 99.766c-1.2188 7.3906-8.1523 12.266-15.539 11.121-7.3906-1.293-12.266-8.3789-10.969-15.617 1.293-7.3125 8.1523-12.266 15.695-10.969 7.1562 1.2969 12.031 8.2266 10.812 15.465z"/>
 </g>
</svg>
