<?xml version="1.0" encoding="UTF-8"?>
<svg width="752pt" height="752pt" version="1.1" viewBox="0 0 752 752" xmlns="http://www.w3.org/2000/svg">
 <defs>
  <clipPath id="b">
   <path d="m167 206h418v406.79h-418z"/>
  </clipPath>
  <clipPath id="a">
   <path d="m260 139.21h116v114.79h-116z"/>
  </clipPath>
 </defs>
 <g>
  <g clip-path="url(#b)">
   <path d="m562.81 287.74c-1.8516 0.085938-3.6719 0.12891-5.4805 0.12891-35.844 0.21094-75.598-17.727-105.64-36.684-15.035-9.4141-27.684-18.902-36.465-25.965-4.3945-3.5352-7.8242-6.4609-10.117-8.4727-1.1484-1-2.0117-1.7773-2.5664-2.2812-0.27344-0.25391-0.48047-0.4375-0.60156-0.55469l-0.125-0.11328c-1.2461-1.1719-2.6094-2.1289-4.0391-2.9258-4.1719-2.5352-9.2109-4.0273-14.648-4.0273h-3.3477c-4.9219 29.574-30.664 52.191-61.609 52.191-30.938 0-56.68-22.617-61.598-52.184h-3.3438c-3.4102 0-6.6562 0.59766-9.6406 1.6602-0.20703 0.054687-0.41406 0.085937-0.62109 0.14844-0.58203 0.1875-16.344 4.6992-33.215 12.613-8.4688 4.0195-17.238 8.7656-25.129 15.273-3.9297 3.2969-7.7227 7.0664-10.953 12.051-0.87109 1.3398-1.6914 2.8125-2.4375 4.3828-1.9883 4.1836-3.4062 9.1367-3.3984 14.609-0.003907 3.3086 0.53516 6.8008 1.625 10.098h-0.003907c0.003907 0.003906 0.003907 0.011719 0.003907 0.015625 0.007812 0.019531 0.011718 0.039063 0.019531 0.058594 0.015625 0.039062 0.035156 0.078125 0.050781 0.11719 2.5508 7.5781 7.3984 13.477 12.957 18.164 8.5312 7.0938 19.23 12.371 33.672 17.555 14.438 5.125 32.668 9.9258 55.984 14.543 1.3398 0.26953 2.6758 0.39453 3.9922 0.39453 9.5312 0 18.055-6.7227 19.98-16.434 2.1914-11.051-4.9961-21.781-16.043-23.969-29.285-5.7812-48.969-11.812-60.406-17.004-3.3359-1.4922-5.9258-2.9102-7.8438-4.1133 1.0469-0.82031 2.2695-1.6914 3.6602-2.5469 0.32031-0.20703 0.67969-0.41406 1.0156-0.62109 4.6797-2.8945 10.574-5.7617 16.312-8.2109l3.543 16.359c10.133 3.2969 24.484 7.1367 44.703 11.129 6.6836 1.3281 12.449 5.1719 16.234 10.828 3.7852 5.6641 5.1445 12.461 3.8242 19.137-2.3672 11.91-12.879 20.547-24.988 20.547-1.6562 0-3.3359-0.16406-4.9805-0.5-8.0938-1.6055-15.598-3.2422-22.617-4.9141l0.69141 3.1992v249.85c0 17.414 14.117 31.52 31.52 31.52 17.406 0 31.523-14.105 31.523-31.52l0.007813-230.14h11.816v230.14c0 17.414 14.113 31.52 31.52 31.52s31.523-14.105 31.523-31.52v-249.85l14.168-65.398c8.1406 6.0898 17.816 12.887 28.75 19.734 33.539 20.832 78.516 42.691 127.28 42.898 2.4844 0 4.957-0.0625 7.4102-0.17969 11.254-0.53125 19.938-10.086 19.406-21.332-0.53516-11.258-10.082-19.941-21.336-19.41z" fill="#0475e5"/>
  </g>
  <g clip-path="url(#a)">
   <path d="m375.54 196.57c0 31.68-25.68 57.363-57.363 57.363-31.68 0-57.363-25.684-57.363-57.363 0-31.68 25.684-57.363 57.363-57.363 31.684 0 57.363 25.684 57.363 57.363" fill="#0475e5"/>
  </g>
 </g>
</svg>
